<svg width="64" height="64" viewBox="0 0 64 64" fill="none" xmlns="http://www.w3.org/2000/svg">
  <rect x="5" y="5" width="54" height="54" rx="15" fill="#F7FCF8"/>
  <rect x="5" y="5" width="54" height="54" rx="15" stroke="#176F5B" stroke-width="3"/>

  <path d="M18 37H46M18 48H46M21.5 33.5V56M32 33.5V56M42.5 33.5V56" stroke="#A9E7D3" stroke-width="2.5" stroke-linecap="round"/>
  <rect x="17" y="29" width="9" height="9" rx="2.5" fill="#176F5B"/>
  <rect x="27.5" y="29" width="9" height="9" rx="2.5" fill="#1D8A6C"/>
  <rect x="38" y="29" width="9" height="9" rx="2.5" fill="#93D7C0"/>
  <rect x="17" y="40" width="9" height="9" rx="2.5" fill="#1D8A6C"/>
  <rect x="27.5" y="40" width="9" height="9" rx="2.5" fill="#93D7C0"/>
  <rect x="38" y="40" width="9" height="9" rx="2.5" fill="#176F5B"/>
  <rect x="17" y="51" width="9" height="9" rx="2.5" fill="#93D7C0"/>
  <rect x="27.5" y="51" width="9" height="9" rx="2.5" fill="#176F5B"/>
  <rect x="38" y="51" width="9" height="9" rx="2.5" fill="#1D8A6C"/>

  <path d="M14 21.5L32 11L50 21.5L32 32L14 21.5Z" fill="#15251D"/>
  <path d="M21.5 25.5C26.8 28.4 37.2 28.4 42.5 25.5V31.2C37.2 34.2 26.8 34.2 21.5 31.2V25.5Z" fill="#176F5B"/>
  <path d="M32 11L50 21.5L32 32L14 21.5L32 11Z" stroke="#15251D" stroke-width="2.5" stroke-linejoin="round"/>
  <path d="M47 23V34" stroke="#15251D" stroke-width="2.4" stroke-linecap="round"/>
  <circle cx="47" cy="36.5" r="3" fill="#93D7C0" stroke="#15251D" stroke-width="2"/>
</svg>
